<svg width="12" height="12" viewBox="0 0 12 12" fill="none" xmlns="http://www.w3.org/2000/svg">
<path d="M10 10.5H7C6.60218 10.5 6.22064 10.342 5.93934 10.0607C5.65804 9.77936 5.5 9.39782 5.5 9V6C5.5 5.60218 5.65804 5.22064 5.93934 4.93934C6.22064 4.65804 6.60218 4.5 7 4.5H10C10.3978 4.5 10.7794 4.65804 11.0607 4.93934C11.342 5.22064 11.5 5.60218 11.5 6V9C11.5 9.39782 11.342 9.77936 11.0607 10.0607C10.7794 10.342 10.3978 10.5 10 10.5ZM7 5.5C6.86739 5.5 6.74021 5.55268 6.64645 5.64645C6.55268 5.74021 6.5 5.86739 6.5 6V9C6.5 9.13261 6.55268 9.25979 6.64645 9.35355C6.74021 9.44732 6.86739 9.5 7 9.5H10C10.1326 9.5 10.2598 9.44732 10.3536 9.35355C10.4473 9.25979 10.5 9.13261 10.5 9V6C10.5 5.86739 10.4473 5.74021 10.3536 5.64645C10.2598 5.55268 10.1326 5.5 10 5.5H7Z" fill="black"/>
<path d="M4.865 7.5H2.835C2.48134 7.49868 2.14254 7.35761 1.89247 7.10753C1.64239 6.85746 1.50132 6.51866 1.5 6.165V2.835C1.50132 2.48134 1.64239 2.14254 1.89247 1.89247C2.14254 1.64239 2.48134 1.50132 2.835 1.5H6.165C6.51866 1.50132 6.85746 1.64239 7.10753 1.89247C7.35761 2.14254 7.49868 2.48134 7.5 2.835V4.7H6.5V2.835C6.5 2.74615 6.46471 2.66094 6.40188 2.59812C6.33906 2.53529 6.25385 2.5 6.165 2.5H2.835C2.74615 2.5 2.66094 2.53529 2.59812 2.59812C2.53529 2.66094 2.5 2.74615 2.5 2.835V6.165C2.5 6.25385 2.53529 6.33906 2.59812 6.40188C2.66094 6.46471 2.74615 6.5 2.835 6.5H4.865V7.5Z" fill="black"/>
</svg>
